<mxfile host="app.diagrams.net" modified="2024-03-16T07:58:18.221Z" agent="Mozilla/5.0 (Windows NT 10.0; Win64; x64) AppleWebKit/537.36 (KHTML, like Gecko) Chrome/122.0.0.0 Safari/537.36" etag="LqqMF30uUqdPe3ZGUc6m" version="24.0.7" type="device">
  <diagram id="C5RBs43oDa-KdzZeNtuy" name="Page-1">
    <mxGraphModel dx="1050" dy="530" grid="1" gridSize="10" guides="1" tooltips="1" connect="1" arrows="1" fold="1" page="1" pageScale="1" pageWidth="827" pageHeight="1169" math="0" shadow="0">
      <root>
        <mxCell id="WIyWlLk6GJQsqaUBKTNV-0" />
        <mxCell id="WIyWlLk6GJQsqaUBKTNV-1" parent="WIyWlLk6GJQsqaUBKTNV-0" />
        <mxCell id="eFejM9r7fqxCFyJI_kYR-5" style="edgeStyle=orthogonalEdgeStyle;rounded=0;orthogonalLoop=1;jettySize=auto;html=1;entryX=0.5;entryY=0;entryDx=0;entryDy=0;" edge="1" parent="WIyWlLk6GJQsqaUBKTNV-1" source="WIyWlLk6GJQsqaUBKTNV-3" target="eFejM9r7fqxCFyJI_kYR-1">
          <mxGeometry relative="1" as="geometry" />
        </mxCell>
        <mxCell id="WIyWlLk6GJQsqaUBKTNV-3" value="Start" style="rounded=1;whiteSpace=wrap;html=1;fontSize=12;glass=0;strokeWidth=1;shadow=0;" parent="WIyWlLk6GJQsqaUBKTNV-1" vertex="1">
          <mxGeometry x="20" y="20" width="130" height="40" as="geometry" />
        </mxCell>
        <mxCell id="eFejM9r7fqxCFyJI_kYR-7" style="edgeStyle=orthogonalEdgeStyle;rounded=0;orthogonalLoop=1;jettySize=auto;html=1;entryX=0.5;entryY=0;entryDx=0;entryDy=0;" edge="1" parent="WIyWlLk6GJQsqaUBKTNV-1" source="WIyWlLk6GJQsqaUBKTNV-7" target="eFejM9r7fqxCFyJI_kYR-6">
          <mxGeometry relative="1" as="geometry" />
        </mxCell>
        <mxCell id="WIyWlLk6GJQsqaUBKTNV-7" value="amount = principal * (1 + ((rate/100) * time)" style="rounded=1;whiteSpace=wrap;html=1;fontSize=12;glass=0;strokeWidth=1;shadow=0;" parent="WIyWlLk6GJQsqaUBKTNV-1" vertex="1">
          <mxGeometry x="20" y="200" width="130" height="50" as="geometry" />
        </mxCell>
        <mxCell id="eFejM9r7fqxCFyJI_kYR-4" style="edgeStyle=orthogonalEdgeStyle;rounded=0;orthogonalLoop=1;jettySize=auto;html=1;entryX=0.5;entryY=0;entryDx=0;entryDy=0;" edge="1" parent="WIyWlLk6GJQsqaUBKTNV-1" source="eFejM9r7fqxCFyJI_kYR-1" target="WIyWlLk6GJQsqaUBKTNV-7">
          <mxGeometry relative="1" as="geometry" />
        </mxCell>
        <mxCell id="eFejM9r7fqxCFyJI_kYR-1" value="Input principal, rate, and time" style="shape=parallelogram;perimeter=parallelogramPerimeter;whiteSpace=wrap;html=1;fixedSize=1;" vertex="1" parent="WIyWlLk6GJQsqaUBKTNV-1">
          <mxGeometry x="20" y="100" width="130" height="60" as="geometry" />
        </mxCell>
        <mxCell id="eFejM9r7fqxCFyJI_kYR-9" style="edgeStyle=orthogonalEdgeStyle;rounded=0;orthogonalLoop=1;jettySize=auto;html=1;entryX=0.5;entryY=0;entryDx=0;entryDy=0;" edge="1" parent="WIyWlLk6GJQsqaUBKTNV-1" source="eFejM9r7fqxCFyJI_kYR-6" target="eFejM9r7fqxCFyJI_kYR-8">
          <mxGeometry relative="1" as="geometry" />
        </mxCell>
        <mxCell id="eFejM9r7fqxCFyJI_kYR-6" value="Output amount" style="shape=parallelogram;perimeter=parallelogramPerimeter;whiteSpace=wrap;html=1;fixedSize=1;" vertex="1" parent="WIyWlLk6GJQsqaUBKTNV-1">
          <mxGeometry x="25" y="290" width="120" height="60" as="geometry" />
        </mxCell>
        <mxCell id="eFejM9r7fqxCFyJI_kYR-8" value="Stop" style="rounded=1;whiteSpace=wrap;html=1;" vertex="1" parent="WIyWlLk6GJQsqaUBKTNV-1">
          <mxGeometry x="25" y="390" width="120" height="40" as="geometry" />
        </mxCell>
        <mxCell id="eFejM9r7fqxCFyJI_kYR-10" style="edgeStyle=orthogonalEdgeStyle;rounded=0;orthogonalLoop=1;jettySize=auto;html=1;entryX=0.5;entryY=0;entryDx=0;entryDy=0;" edge="1" parent="WIyWlLk6GJQsqaUBKTNV-1" source="eFejM9r7fqxCFyJI_kYR-11" target="eFejM9r7fqxCFyJI_kYR-15">
          <mxGeometry relative="1" as="geometry" />
        </mxCell>
        <mxCell id="eFejM9r7fqxCFyJI_kYR-11" value="Start" style="rounded=1;whiteSpace=wrap;html=1;fontSize=12;glass=0;strokeWidth=1;shadow=0;" vertex="1" parent="WIyWlLk6GJQsqaUBKTNV-1">
          <mxGeometry x="330" y="20" width="130" height="40" as="geometry" />
        </mxCell>
        <mxCell id="eFejM9r7fqxCFyJI_kYR-12" style="edgeStyle=orthogonalEdgeStyle;rounded=0;orthogonalLoop=1;jettySize=auto;html=1;entryX=0.5;entryY=0;entryDx=0;entryDy=0;" edge="1" parent="WIyWlLk6GJQsqaUBKTNV-1" source="eFejM9r7fqxCFyJI_kYR-13" target="eFejM9r7fqxCFyJI_kYR-17">
          <mxGeometry relative="1" as="geometry" />
        </mxCell>
        <mxCell id="eFejM9r7fqxCFyJI_kYR-13" value="amount = principal * ((1 + (rate/num)) ^ (num * time))" style="rounded=1;whiteSpace=wrap;html=1;fontSize=12;glass=0;strokeWidth=1;shadow=0;" vertex="1" parent="WIyWlLk6GJQsqaUBKTNV-1">
          <mxGeometry x="330" y="200" width="130" height="50" as="geometry" />
        </mxCell>
        <mxCell id="eFejM9r7fqxCFyJI_kYR-14" style="edgeStyle=orthogonalEdgeStyle;rounded=0;orthogonalLoop=1;jettySize=auto;html=1;entryX=0.5;entryY=0;entryDx=0;entryDy=0;" edge="1" parent="WIyWlLk6GJQsqaUBKTNV-1" source="eFejM9r7fqxCFyJI_kYR-15" target="eFejM9r7fqxCFyJI_kYR-13">
          <mxGeometry relative="1" as="geometry" />
        </mxCell>
        <mxCell id="eFejM9r7fqxCFyJI_kYR-15" value="Input principal, rate, time, and num" style="shape=parallelogram;perimeter=parallelogramPerimeter;whiteSpace=wrap;html=1;fixedSize=1;" vertex="1" parent="WIyWlLk6GJQsqaUBKTNV-1">
          <mxGeometry x="330" y="100" width="130" height="60" as="geometry" />
        </mxCell>
        <mxCell id="eFejM9r7fqxCFyJI_kYR-16" style="edgeStyle=orthogonalEdgeStyle;rounded=0;orthogonalLoop=1;jettySize=auto;html=1;entryX=0.5;entryY=0;entryDx=0;entryDy=0;" edge="1" parent="WIyWlLk6GJQsqaUBKTNV-1" source="eFejM9r7fqxCFyJI_kYR-17" target="eFejM9r7fqxCFyJI_kYR-18">
          <mxGeometry relative="1" as="geometry" />
        </mxCell>
        <mxCell id="eFejM9r7fqxCFyJI_kYR-17" value="Output amount" style="shape=parallelogram;perimeter=parallelogramPerimeter;whiteSpace=wrap;html=1;fixedSize=1;" vertex="1" parent="WIyWlLk6GJQsqaUBKTNV-1">
          <mxGeometry x="335" y="290" width="120" height="60" as="geometry" />
        </mxCell>
        <mxCell id="eFejM9r7fqxCFyJI_kYR-18" value="Stop" style="rounded=1;whiteSpace=wrap;html=1;" vertex="1" parent="WIyWlLk6GJQsqaUBKTNV-1">
          <mxGeometry x="335" y="390" width="120" height="40" as="geometry" />
        </mxCell>
        <mxCell id="eFejM9r7fqxCFyJI_kYR-19" style="edgeStyle=orthogonalEdgeStyle;rounded=0;orthogonalLoop=1;jettySize=auto;html=1;entryX=0.5;entryY=0;entryDx=0;entryDy=0;" edge="1" parent="WIyWlLk6GJQsqaUBKTNV-1" source="eFejM9r7fqxCFyJI_kYR-20" target="eFejM9r7fqxCFyJI_kYR-24">
          <mxGeometry relative="1" as="geometry" />
        </mxCell>
        <mxCell id="eFejM9r7fqxCFyJI_kYR-20" value="Start" style="rounded=1;whiteSpace=wrap;html=1;fontSize=12;glass=0;strokeWidth=1;shadow=0;" vertex="1" parent="WIyWlLk6GJQsqaUBKTNV-1">
          <mxGeometry x="640" y="20" width="130" height="40" as="geometry" />
        </mxCell>
        <mxCell id="eFejM9r7fqxCFyJI_kYR-21" style="edgeStyle=orthogonalEdgeStyle;rounded=0;orthogonalLoop=1;jettySize=auto;html=1;entryX=0.5;entryY=0;entryDx=0;entryDy=0;" edge="1" parent="WIyWlLk6GJQsqaUBKTNV-1" source="eFejM9r7fqxCFyJI_kYR-22" target="eFejM9r7fqxCFyJI_kYR-26">
          <mxGeometry relative="1" as="geometry" />
        </mxCell>
        <mxCell id="eFejM9r7fqxCFyJI_kYR-22" value="amount = pmt * ((((1+(rate/num)) ^ (num*time))-1)/(rate/num))" style="rounded=1;whiteSpace=wrap;html=1;fontSize=12;glass=0;strokeWidth=1;shadow=0;" vertex="1" parent="WIyWlLk6GJQsqaUBKTNV-1">
          <mxGeometry x="635" y="200" width="140" height="50" as="geometry" />
        </mxCell>
        <mxCell id="eFejM9r7fqxCFyJI_kYR-23" style="edgeStyle=orthogonalEdgeStyle;rounded=0;orthogonalLoop=1;jettySize=auto;html=1;entryX=0.5;entryY=0;entryDx=0;entryDy=0;" edge="1" parent="WIyWlLk6GJQsqaUBKTNV-1" source="eFejM9r7fqxCFyJI_kYR-24" target="eFejM9r7fqxCFyJI_kYR-22">
          <mxGeometry relative="1" as="geometry" />
        </mxCell>
        <mxCell id="eFejM9r7fqxCFyJI_kYR-24" value="Input pmt, rate, time, and num" style="shape=parallelogram;perimeter=parallelogramPerimeter;whiteSpace=wrap;html=1;fixedSize=1;" vertex="1" parent="WIyWlLk6GJQsqaUBKTNV-1">
          <mxGeometry x="640" y="100" width="130" height="60" as="geometry" />
        </mxCell>
        <mxCell id="eFejM9r7fqxCFyJI_kYR-25" style="edgeStyle=orthogonalEdgeStyle;rounded=0;orthogonalLoop=1;jettySize=auto;html=1;entryX=0.5;entryY=0;entryDx=0;entryDy=0;" edge="1" parent="WIyWlLk6GJQsqaUBKTNV-1" source="eFejM9r7fqxCFyJI_kYR-26" target="eFejM9r7fqxCFyJI_kYR-27">
          <mxGeometry relative="1" as="geometry" />
        </mxCell>
        <mxCell id="eFejM9r7fqxCFyJI_kYR-26" value="Output amount" style="shape=parallelogram;perimeter=parallelogramPerimeter;whiteSpace=wrap;html=1;fixedSize=1;" vertex="1" parent="WIyWlLk6GJQsqaUBKTNV-1">
          <mxGeometry x="645" y="290" width="120" height="60" as="geometry" />
        </mxCell>
        <mxCell id="eFejM9r7fqxCFyJI_kYR-27" value="Stop" style="rounded=1;whiteSpace=wrap;html=1;" vertex="1" parent="WIyWlLk6GJQsqaUBKTNV-1">
          <mxGeometry x="645" y="390" width="120" height="40" as="geometry" />
        </mxCell>
      </root>
    </mxGraphModel>
  </diagram>
</mxfile>
